<svg id="Laag_1" data-name="Laag 1" xmlns="http://www.w3.org/2000/svg" viewBox="0 0 453.66 453.66"><defs><style>.cls-1{fill:#fff;}.cls-2{fill:#f47a20;opacity:0.3;}.cls-3{fill:#343434;}.cls-4{fill:#2d8efc;}.cls-5{fill:#825014;}.cls-6{fill:#ffbb7d;}.cls-7{fill:#352b1d;}.cls-8{fill:#f4b17a;}.cls-9{fill:#282828;}.cls-10{fill:#efdc2e;}.cls-11{fill:#115570;}.cls-12{fill:#1878a8;}.cls-13{fill:#1884c6;}.cls-14,.cls-15{fill:none;stroke-miterlimit:10;stroke-width:5px;}.cls-14{stroke:#1878a8;}.cls-15{stroke:#1884c6;}</style></defs><title>doneren</title><rect class="cls-1" width="453.66" height="453.66"/><circle class="cls-2" cx="226.83" cy="232.68" r="189.84"/><path class="cls-3" d="M724.45,477.11s7.67-35,7.67-49.62-1.28-61.29-7.67-71.51-19.18-27.73-28.12-30.64-28.12-8.76-34.51-5.84c0,0,11.5,7.3,11.5,13.13,0,0-15.34-14.59-32-14.59s-20.45,1.46-20.45,1.46,14.06,8.75,16.62,16.05c0,0-16.62-19-39.63-17.51s-24.28,5.84-24.28,5.84,19.17,5.83,21.73,11.67c0,0-19.18-10.21-32-2.92,0,0-6.39,0-12.78,10.22,0,0,10.23,0,16.62,4.38,0,0-19.18,19-14.06,108S724.45,477.11,724.45,477.11Z" transform="translate(-413.6 -285.44)"/><path class="cls-4" d="M629.93,550.77" transform="translate(-413.6 -285.44)"/><path class="cls-5" d="M711,580h30.51a14.38,14.38,0,0,1,14.38,14.38V652a29.63,29.63,0,0,1-29.63,29.63h0A29.63,29.63,0,0,1,696.64,652V594.35A14.38,14.38,0,0,1,711,580Z" transform="translate(916.1 1094.49) rotate(-169.83)"/><rect class="cls-6" x="283.94" y="169.57" width="22.67" height="21.78" rx="5.76"/><rect class="cls-6" x="146.67" y="169.57" width="22.67" height="21.78" rx="5.76"/><path class="cls-7" d="M592.32,489.41s15.32,0,15.32-16.85-15.32-16.86-15.32-16.86-18.39,0-18.39,16.86S589.25,489.41,592.32,489.41Z" transform="translate(-413.6 -285.44)"/><rect class="cls-5" x="149.48" y="242.64" width="160.84" height="167.41" rx="23.1"/><rect class="cls-1" x="207.21" y="243.92" width="44.9" height="166.13" rx="8.88"/><rect class="cls-6" x="200" y="209.17" width="60.19" height="54.14" rx="12"/><rect class="cls-5" x="587.46" y="530.64" width="50.03" height="19.24" rx="4.67" transform="translate(211.64 -561.78) rotate(49.48)"/><rect class="cls-8" x="200" y="214.02" width="60.19" height="23.75" rx="5.76"/><rect class="cls-5" x="649.03" y="530.64" width="50.03" height="19.24" rx="4.67" transform="translate(1109.08 93.43) rotate(130.52)"/><path class="cls-5" d="M701.24,537h30.51a14.38,14.38,0,0,1,14.38,14.38v53.19a29.63,29.63,0,0,1-29.63,29.63h0a29.63,29.63,0,0,1-29.63-29.63V551.35A14.38,14.38,0,0,1,701.24,537Z" transform="translate(-618.76 217.54) rotate(-34.14)"/><rect class="cls-6" x="152.97" y="75.17" width="149.57" height="153.72" rx="38"/><path class="cls-5" d="M560.27,575h0a29.63,29.63,0,0,1,29.63,29.63v57.62a14.38,14.38,0,0,1-14.38,14.38H545a14.38,14.38,0,0,1-14.38-14.38V604.64A29.63,29.63,0,0,1,560.27,575Z" transform="translate(-515.33 -176.64) rotate(-10.17)"/><path class="cls-5" d="M570,532h0a29.63,29.63,0,0,1,29.63,29.63v53.19a14.38,14.38,0,0,1-14.38,14.38H554.79a14.38,14.38,0,0,1-14.38-14.38V561.64A29.63,29.63,0,0,1,570,532Z" transform="translate(302.43 1095.64) rotate(-145.86)"/><rect class="cls-6" x="687.19" y="634.2" width="59.26" height="67.41" rx="14.38" transform="translate(1092.29 963.24) rotate(173.38)"/><rect class="cls-6" x="540.09" y="629.24" width="59.26" height="67.41" rx="14.38" transform="translate(-333.34 -346.73) rotate(6.62)"/><ellipse class="cls-9" cx="277.37" cy="180.46" rx="7.15" ry="9.16"/><ellipse class="cls-9" cx="178.25" cy="180.46" rx="7.15" ry="9.16"/><rect class="cls-10" x="158.75" y="282.05" width="146.02" height="110.95" rx="5.5"/><rect class="cls-11" x="156.28" y="267.23" width="150.95" height="21.73" rx="3.6"/><rect class="cls-12" x="156.9" y="329.22" width="73.93" height="17.89"/><rect class="cls-13" x="232.68" y="329.22" width="73.93" height="17.89"/><rect class="cls-13" x="585.74" y="611.3" width="129.1" height="8.01" transform="translate(851.99 -320.43) rotate(90)"/><rect class="cls-12" x="577.73" y="611.3" width="129.1" height="8.01" transform="translate(843.98 -312.42) rotate(90)"/><path class="cls-14" d="M644.75,552.67s-45.29-12.78-46.52-23S605,519.44,605,519.44s19.1-.64,25.26,7,16,21.09,15.4,23.64S644.75,552.67,644.75,552.67Z" transform="translate(-413.6 -285.44)"/><path class="cls-15" d="M648.33,552.68S645,537,651.08,529s31.28-21.14,36.77-18.86,7.13,8,4.94,11.43-22,26.29-32.38,29.14S648.33,552.68,648.33,552.68Z" transform="translate(-413.6 -285.44)"/><path class="cls-3" d="M556.73,409.53a.27.27,0,0,0,.46.2,135.27,135.27,0,0,1,24.13-18.11c6.72-3.95,14.47-7.36,21.87-5.34a.31.31,0,0,1,.15.46,9.63,9.63,0,0,0-1.39,5.44.29.29,0,0,0,.36.27L617,388.14c11.69-3.39,23.48-6.74,35.55-7.66s24.58.72,35.27,6.83c2.71,1.55,5.29,3.37,8.07,4.76,3.58,1.77,7.61,2.89,10.47,5.77a.32.32,0,0,1-.13.52l-4.95,1.31a.31.31,0,0,0,0,.59c5.14,1.08,10.32,2.3,14.9,5,4.94,2.94,9.15,8,9.86,14,0,0-5.65-56-23.91-58.38s-116.5-14.5-132.21,7.7C555.86,388.55,556.46,406.17,556.73,409.53Z" transform="translate(-413.6 -285.44)"/></svg>