<svg id="Laag_1" data-name="Laag 1" xmlns="http://www.w3.org/2000/svg" xmlns:xlink="http://www.w3.org/1999/xlink" viewBox="0 0 453.66 453.66"><defs><style>.cls-1{fill:#fff;}.cls-2{fill:#47cd74;opacity:0.3;}.cls-3{fill:#c69054;}.cls-4{fill:#343434;}.cls-5{fill:#ffbb7d;}.cls-6{fill:#352b1d;}.cls-7{fill:#f4b17a;}.cls-8{fill:#f2b27e;}.cls-9{fill:#282828;}</style></defs><title>vrijwilliger</title><rect class="cls-1" width="453.66" height="453.66"/><circle class="cls-2" cx="232.74" cy="236.82" r="189.84"/><path class="cls-3" d="M538.41,479.16s1.42,20.51-1.32,34.85a44.42,44.42,0,0,1-1.25,5.08c-4.37,13.92,38.34,15.67,48.6,14.11s-11.83-28.52-26.36-26" transform="translate(-411.9 -280.19)"/><path class="cls-3" d="M535.84,462.91c.38-23.28,9.9-21.25,5.42-34.91s-1.18-45,9.42-51.58,1.42-56.54,88.34-54.65c0,0,84.56-4.95,98.69,35.8s3.06,49.7,3.3,65.48a193,193,0,0,0,5.89,45.83c3.77,14.24,13.43,42,5,48.4s-25,16.13-33.45,14S682,543.71,676.07,539s-63.2-5.13-79.92.93-19.08-3-28.27-8.72-27.48-23.16-26.57-32.89C541.31,498.34,535.74,469,535.84,462.91Z" transform="translate(-411.9 -280.19)"/><path class="cls-4" d="M771.29,474.7H801.8a14.38,14.38,0,0,1,14.38,14.38v57.62a29.63,29.63,0,0,1-29.63,29.63h0a29.63,29.63,0,0,1-29.63-29.63V489.07a14.38,14.38,0,0,1,14.38-14.38Z" transform="translate(6.76 -626.15) rotate(33.37)"/><path class="cls-4" d="M537,572.64h30.51A14.38,14.38,0,0,1,581.85,587v57.62a29.63,29.63,0,0,1-29.63,29.63h0a29.63,29.63,0,0,1-29.63-29.63V587A14.38,14.38,0,0,1,537,572.64Z" transform="translate(521.52 1083.75) rotate(-165.71)"/><rect class="cls-5" x="292.57" y="173.71" width="23.75" height="21.78" rx="5.76"/><rect class="cls-5" x="148.79" y="173.71" width="23.75" height="21.78" rx="5.76"/><path class="cls-6" d="M596.53,488.3s15.32,0,15.32-16.86-15.32-16.86-15.32-16.86-18.39,0-18.39,16.86S593.46,488.3,596.53,488.3Z" transform="translate(-411.9 -280.19)"/><rect class="cls-4" x="155.39" y="246.78" width="160.84" height="167.41" rx="23.1"/><rect class="cls-4" x="213.12" y="248.06" width="44.9" height="166.13" rx="8.88"/><rect class="cls-5" x="205.91" y="213.31" width="60.19" height="54.14" rx="12"/><rect class="cls-7" x="205.91" y="218.16" width="60.19" height="23.75" rx="5.76"/><path class="cls-4" d="M730,502.49h30.51a14.38,14.38,0,0,1,14.38,14.38v53.19a29.63,29.63,0,0,1-29.63,29.63h0a29.63,29.63,0,0,1-29.63-29.63V516.86A14.38,14.38,0,0,1,730,502.49Z" transform="translate(-66.41 1107.14) rotate(-100.93)"/><path class="cls-4" d="M558.19,532.38H588.7a14.38,14.38,0,0,1,14.38,14.38V600a29.63,29.63,0,0,1-29.63,29.63h0A29.63,29.63,0,0,1,543.82,600V546.76A14.38,14.38,0,0,1,558.19,532.38Z" transform="translate(73.56 -510.77) rotate(38.44)"/><rect class="cls-5" x="155.39" y="79.31" width="156.67" height="153.72" rx="38"/><rect class="cls-8" x="779.12" y="416.81" width="17.28" height="36.98" rx="8.64" transform="translate(1208.56 496.66) rotate(173.38)"/><rect class="cls-5" x="505.9" y="630.22" width="59.26" height="67.41" rx="14.38" transform="translate(732.16 981.47) rotate(173.38)"/><path class="cls-3" d="M567.29,433.88s46.24-70.58,67.93-70.58,26.61,49.49,44.95,69.3,44.94,19.11,44.94,19.11,21-53.58,9.84-69.78-71.55-60.44-104.42-44.24-72.45,5.14-72.45,60.19S567.29,433.88,567.29,433.88Z" transform="translate(-411.9 -280.19)"/><ellipse class="cls-9" cx="282.12" cy="184.6" rx="7.15" ry="9.16"/><ellipse class="cls-9" cx="183" cy="184.6" rx="7.15" ry="9.16"/><image width="512" height="512" transform="translate(252.69 273.87) scale(0.09)" xlink:href="../../../../../Pictures/trash/cropped-Logo-Hart-Vierkant-1.png"/><rect class="cls-5" x="779.66" y="439.73" width="59.26" height="67.41" rx="14.38" transform="translate(1255.88 570.19) rotate(173.38)"/></svg>