<svg id="Laag_1" data-name="Laag 1" xmlns="http://www.w3.org/2000/svg" viewBox="0 0 453.66 453.66"><defs><style>.cls-1{fill:#fff;}.cls-2{fill:#2d8efc;opacity:0.3;}.cls-3{fill:#455168;}.cls-4{fill:#7f512b;}.cls-5{fill:#ffbb7d;}.cls-6{fill:#352b1d;}.cls-7{fill:#f4b17a;}.cls-8{fill:#343434;}.cls-9{fill:#b2a18a;}.cls-10{fill:#b7a692;}.cls-11{fill:#8e4a1b;}.cls-12{fill:#a05725;}.cls-13{fill:#e8bf15;}.cls-14{fill:#f4c811;}.cls-15{fill:#fdcd09;}.cls-16{fill:#f47a20;}.cls-17{fill:#f7802f;}.cls-18{fill:#47cd74;}.cls-19{fill:#ff2727;}.cls-20{fill:#8c541b;}.cls-21{fill:#da7f36;}.cls-22{fill:#e9b65b;}.cls-23{fill:#bfaf9b;}</style></defs><title>klanten</title><rect class="cls-1" width="453.66" height="453.66"/><circle class="cls-2" cx="228.1" cy="216.06" r="189.84"/><path class="cls-3" d="M710.58,558.1h30.51a14.38,14.38,0,0,1,14.38,14.38v57.62a29.63,29.63,0,0,1-29.63,29.63h0a29.63,29.63,0,0,1-29.63-29.63V572.47A14.38,14.38,0,0,1,710.58,558.1Z" transform="translate(920.81 1056.27) rotate(-169.83)"/><path class="cls-4" d="M676.46,455.67l6.32-44.39c1.41-9.93,2.82-20,1-29.93s-7.5-19.66-17.16-24.6c-4.82-2.46-10.31-3.57-15.48-5.39a1.11,1.11,0,0,0-1.51.94,6.38,6.38,0,0,0,.94,3.48c-1.27-2.78-4.9-3.88-8.13-4.58a174,174,0,0,0-35.88-3.86,1,1,0,0,0-.87,1.63,13,13,0,0,1,2.18,3.83,1.05,1.05,0,0,1-1.37,1.29c-9.63-2.74-20.24-1.12-30.39-1.88a23.4,23.4,0,0,0-6,0c-2,.36-3.89,1.45-4.52,3.16a3.07,3.07,0,0,0,.32,2.65,1,1,0,0,1-.89,1.55l-8.52.33a3,3,0,0,0-1.78.45,2.3,2.3,0,0,0-.66,1.28,90.06,90.06,0,0,0-2.81,17.54,1.09,1.09,0,0,1-1.44.91,5.69,5.69,0,0,1-.87-.4,1.14,1.14,0,0,0-1.72.67c-2.51,13.49,2.5,14.76,1.86,22.16-.5,5.81-3.57,11.18-4.79,16.9-2,9.59,1.19,19.4,4.62,28.66,1.66,4.46,3.57,9.17,7.7,12a24.24,24.24,0,0,0,6.92,3c18.12,5.4,37.83,4.42,56.67,1.62s37.36-7.37,56.36-9" transform="translate(-411.9 -280.19)"/><path class="cls-4" d="M558.87,451.67l-8.73-61.36c-2-13.74-3.91-27.73-1.34-41.38s10.37-27.2,23.72-34c7.23-3.69,15.55-5.2,23.2-8.11,0,0,0,0,0,0a8.74,8.74,0,0,1-1,6.75c1.76-3.84,6.77-5.37,11.24-6.33a239.74,239.74,0,0,1,52.94-5.32s0,0,0,0A17.77,17.77,0,0,0,653.07,312s0,0,0,0c14-4.91,29.63-2.3,44.57-3.41a32.64,32.64,0,0,1,8.26-.05c2.71.49,5.38,2,6.26,4.37a4.32,4.32,0,0,1-3.38,5.62s0,0,0,0l15.94.62a4,4,0,0,1,2.47.63,3.24,3.24,0,0,1,.9,1.76,125,125,0,0,1,4,25.87l0,0a6.92,6.92,0,0,0,4.74-2.3.07.07,0,0,1,.12,0c6,18.43-2.9,22.12-2,32.92.69,8,4.93,15.46,6.62,23.36,2.83,13.26-1.64,26.82-6.39,39.62-2.29,6.17-4.93,12.68-10.64,16.65a33.07,33.07,0,0,1-9.57,4.15c-25.06,7.47-52.31,6.11-78.35,2.24S585,454,558.74,451.74" transform="translate(-411.9 -280.19)"/><rect class="cls-5" x="287.93" y="152.95" width="23.75" height="21.78" rx="5.76"/><rect class="cls-5" x="144.15" y="152.95" width="23.75" height="21.78" rx="5.76"/><path class="cls-6" d="M591.88,467.54s15.32,0,15.32-16.86-15.32-16.86-15.32-16.86-18.38,0-18.38,16.86S588.82,467.54,591.88,467.54Z" transform="translate(-411.9 -280.19)"/><rect class="cls-3" x="150.75" y="226.02" width="160.84" height="167.41" rx="23.1"/><rect class="cls-1" x="208.48" y="227.3" width="44.9" height="166.13" rx="8.88"/><rect class="cls-5" x="201.27" y="192.55" width="60.19" height="54.14" rx="12"/><rect class="cls-3" x="587.02" y="508.77" width="50.03" height="19.24" rx="4.67" transform="translate(196.57 -563.86) rotate(49.48)"/><rect class="cls-7" x="201.27" y="197.4" width="60.19" height="23.75" rx="5.76"/><rect class="cls-3" x="648.6" y="508.77" width="50.03" height="19.24" rx="4.67" transform="translate(1093.44 62.93) rotate(130.52)"/><path class="cls-3" d="M700.81,515.1h30.51a14.38,14.38,0,0,1,14.38,14.38v53.19a29.63,29.63,0,0,1-29.63,29.63h0a29.63,29.63,0,0,1-29.63-29.63V529.47A14.38,14.38,0,0,1,700.81,515.1Z" transform="translate(-604.85 218.79) rotate(-34.14)"/><rect class="cls-5" x="150.75" y="58.55" width="156.67" height="153.72" rx="38"/><path class="cls-4" d="M727.88,375.3a.28.28,0,0,1-.46.17,138.37,138.37,0,0,0-24.49-15.66c-6.82-3.42-14.68-6.36-22.18-4.62a.25.25,0,0,0-.16.4A7.36,7.36,0,0,1,682,360.3a.28.28,0,0,1-.36.23l-14.95-3.73c-11.86-2.93-23.82-5.83-36.07-6.63s-24.94.62-35.78,5.91c-2.75,1.34-5.36,2.92-8.19,4.12-3.63,1.53-7.72,2.5-10.62,5a.26.26,0,0,0,.13.45l5,1.13a.26.26,0,0,1,0,.51c-5.22.94-10.47,2-15.11,4.35-5,2.54-9.29,6.88-10,12.09,0,0,5.73-48.46,24.26-50.49s118.2-12.54,134.13,6.66C728.76,357.15,728.15,372.39,727.88,375.3Z" transform="translate(-411.9 -280.19)"/><path class="cls-8" d="M582.2,448.29h4.47s.39-5.46,5.53-5.46,4.87,5.46,4.87,5.46h5.36s.4-11.33-10.11-11.33S582.2,448.29,582.2,448.29Z" transform="translate(-411.9 -280.19)"/><path class="cls-8" d="M679.59,448.29h4.47s.39-5.46,5.54-5.46,4.86,5.46,4.86,5.46h5.37S700.22,437,689.71,437,679.59,448.29,679.59,448.29Z" transform="translate(-411.9 -280.19)"/><path class="cls-3" d="M559.84,553.14h0a29.63,29.63,0,0,1,29.63,29.63v57.62a14.38,14.38,0,0,1-14.38,14.38H544.58a14.38,14.38,0,0,1-14.38-14.38V582.77a29.63,29.63,0,0,1,29.63-29.63Z" transform="translate(-509.77 -171.81) rotate(-10.17)"/><path class="cls-3" d="M569.61,510.14h0a29.63,29.63,0,0,1,29.63,29.63V593a14.38,14.38,0,0,1-14.38,14.38H554.36A14.38,14.38,0,0,1,540,593V539.77a29.63,29.63,0,0,1,29.63-29.63Z" transform="translate(315.62 1060.67) rotate(-145.86)"/><rect class="cls-9" x="150.75" y="285.09" width="156.67" height="156.67"/><rect class="cls-5" x="686.76" y="612.32" width="59.26" height="67.41" rx="14.38" transform="translate(1090.61 924.94) rotate(173.38)"/><rect class="cls-5" x="539.65" y="607.36" width="59.26" height="67.41" rx="14.38" transform="translate(-334.16 -341.57) rotate(6.62)"/><polyline class="cls-10" points="307.42 285.09 322.98 272.48 292.57 240.28 230.11 285.09 167.9 240.28 136.94 268.61 150.75 285.09"/><ellipse class="cls-11" cx="676.61" cy="525.34" rx="71.03" ry="23.15" transform="translate(-452.39 713.71) rotate(-70.99)"/><ellipse class="cls-12" cx="694.49" cy="477.55" rx="4.06" ry="9.04" transform="translate(-512.41 477.28) rotate(-53.91)"/><ellipse class="cls-12" cx="688.13" cy="493.14" rx="4.51" ry="13.81" transform="translate(-519.29 502.54) rotate(-55.63)"/><ellipse class="cls-12" cx="664.2" cy="549.45" rx="4.51" ry="13.81" transform="translate(-576.19 507.31) rotate(-55.63)"/><ellipse class="cls-12" cx="679.82" cy="512.64" rx="4.98" ry="17.38" transform="translate(-537.19 509.5) rotate(-56.01)"/><ellipse class="cls-12" cx="672.78" cy="530.73" rx="4.98" ry="17.38" transform="translate(-555.29 511.64) rotate(-56.01)"/><path class="cls-13" d="M640,507.81s13.24,18-.31,32.65-40.21,4.86-40.21,4.86-.77-3.18-.26-3.65,29-1,33.08-8.43,5.41-13.12,4.28-23.77A4.62,4.62,0,0,1,640,507.81Z" transform="translate(-411.9 -280.19)"/><path class="cls-14" d="M638.83,509.58s15.9,15.71,4.83,32.3-39,11.11-39,11.11-1.25-3-.82-3.56,28.47-5.53,31.34-13.53,3.28-13.8.5-24.14A4.61,4.61,0,0,1,638.83,509.58Z" transform="translate(-411.9 -280.19)"/><path class="cls-15" d="M637.73,508.26s19.33,11.4,12.76,30.55-34.92,20.88-34.92,20.88-2-2.66-1.69-3.3,26.17-12.7,27-21.31-.28-14.41-5.57-23.88A4.63,4.63,0,0,1,637.73,508.26Z" transform="translate(-411.9 -280.19)"/><circle class="cls-16" cx="189.75" cy="272.78" r="19.45"/><circle class="cls-17" cx="215.86" cy="280.81" r="17.57"/><path class="cls-4" d="M612.9,537.1s3.88-6.64,3.28-10.29,4.1.67,4.1.67-5.4,9.88-6.42,10.34S612.9,537.1,612.9,537.1Z" transform="translate(-411.9 -280.19)"/><path class="cls-18" d="M637,539.4c-9.18-14.36-23.12-1.58-23.12-1.58S638.69,542.09,637,539.4Z" transform="translate(-411.9 -280.19)"/><circle class="cls-19" cx="243.86" cy="277.43" r="13.19"/><path class="cls-20" d="M650.24,549.32s1.52.78,2-.65-4.71-12-6.84-12.81-.71,1.28-.71,1.28S649.94,542.14,650.24,549.32Z" transform="translate(-411.9 -280.19)"/><path class="cls-18" d="M668.22,529.61c-16.82-2.75-16.61,16.16-16.61,16.16S671.36,530.13,668.22,529.61Z" transform="translate(-411.9 -280.19)"/><ellipse class="cls-21" cx="697.02" cy="538.39" rx="52.69" ry="20.84" transform="translate(-505.56 646.18) rotate(-63.82)"/><ellipse class="cls-22" cx="713.76" cy="504.33" rx="3.11" ry="7.88" transform="translate(-465.64 642.17) rotate(-63.82)"/><ellipse class="cls-22" cx="707.81" cy="515.44" rx="3.44" ry="12.07" transform="translate(-478.93 643.04) rotate(-63.82)"/><ellipse class="cls-22" cx="685.4" cy="555.58" rx="3.44" ry="12.07" transform="translate(-527.48 645.35) rotate(-63.82)"/><ellipse class="cls-22" cx="700.03" cy="529.34" rx="3.8" ry="15.2" transform="translate(-495.75 643.82) rotate(-63.82)"/><ellipse class="cls-22" cx="693.43" cy="542.23" rx="3.8" ry="15.2" transform="translate(-511.01 645.11) rotate(-63.82)"/><polygon class="cls-23" points="150.75 285.09 142.91 320.48 313.94 320.48 307.42 285.09 150.75 285.09"/></svg>